<?xml version="1.0" encoding="utf-8"?>
<!-- Generator: Adobe Illustrator 16.2.0, SVG Export Plug-In . SVG Version: 6.00 Build 0)  -->
<!DOCTYPE svg PUBLIC "-//W3C//DTD SVG 1.1//EN" "http://www.w3.org/Graphics/SVG/1.1/DTD/svg11.dtd">
<svg version="1.1" id="Layer_1" xmlns="http://www.w3.org/2000/svg" xmlns:xlink="http://www.w3.org/1999/xlink" x="0px" y="0px"
	 width="124.771px" height="30.07px" viewBox="0 0 124.771 30.07" enable-background="new 0 0 124.771 30.07" xml:space="preserve">
<rect x="62.647" y="0" fill="#1D4CD7" width="62.125" height="30.069"/>
<rect x="0.004" y="0" fill="#F40C23" width="60.852" height="30.069"/>
<g>
	<path fill="#FFFFFF" d="M67.922,5.573h4.718l3.926,9.124l3.955-9.124h4.716v18.66H80.49l0.028-5.378l0.29-3.767l-0.158-0.025
		l-2.452,6.402h-3.24l-2.504-6.404l-0.134,0.026l0.318,3.768v5.378h-4.717V5.573z"/>
	<path fill="#FFFFFF" d="M104.031,24.234h-5.059l-1.211-3.743h-4.982l-1.164,3.743h-5.056l6.51-18.661h4.296L104.031,24.234z
		 M96.624,16.299l-1.292-5.452h-0.128l-1.37,5.452H96.624z"/>
	<path fill="#FFFFFF" d="M110.884,18.304h-0.845v5.929h-4.768V5.573h7.459c3.845,0,6.824,1.769,6.932,6.143
		c0,3.455-1.4,5.401-3.664,6.118l5.085,6.4h-5.875L110.884,18.304z M112.809,14.245c2.977,0,2.977-4.271,0-4.271h-2.77v4.271
		H112.809z"/>
</g>
<g>
	<path fill="#FFFFFF" d="M14.007,18.269h-0.833v5.868H8.453V5.668h7.381c3.81,0,6.756,1.747,6.86,6.081
		c0,3.415-1.381,5.349-3.625,6.05l5.034,6.342h-5.818L14.007,18.269z M15.913,14.251c2.948,0,2.948-4.228,0-4.228h-2.739v4.228
		H15.913z"/>
	<path fill="#FFFFFF" d="M30.03,12.921h7.487v4.043H30.03v2.768h8.139v4.406h-12.86V5.668h12.86v4.384H30.03V12.921z"/>
	<path fill="#FFFFFF" d="M47.565,5.668c3.704,0,7.172,1.88,7.172,6.184v6.209c0,4.252-3.47,6.104-7.172,6.076h-6.913V5.668H47.565z
		 M47.721,19.757c1.591,0,2.32-0.809,2.32-2.008v-5.766c0-1.199-0.755-1.959-2.32-1.959h-2.374v9.731L47.721,19.757L47.721,19.757z"
		/>
</g>
</svg>